<svg width="40" height="42" viewBox="0 0 40 42" fill="none" xmlns="http://www.w3.org/2000/svg">
<path d="M14.2857 32.381C7.14236 34.631 7.47569 27.7976 4.61903 27.0476M25.7142 39.0476V29.5476C25.7142 27.881 25.7602 26.706 24.7619 25.7143C29.4135 25.2143 33.3333 23.5567 33.3333 15.7667C33.3268 13.7602 32.5284 11.8375 31.1116 10.4167C31.4459 9.55586 31.6063 8.63731 31.5834 7.71415C31.5605 6.79099 31.3548 5.88152 30.9783 5.03833C30.9783 5.03833 29.2283 4.53833 25.185 7.15C21.7851 6.2638 18.2148 6.2638 14.815 7.15C10.77 4.53833 9.02162 5.03833 9.02162 5.03833C8.64506 5.88152 8.4394 6.79099 8.41651 7.71415C8.39363 8.63731 8.55398 9.55586 8.88829 10.4167C8.18148 11.1254 7.62143 11.9665 7.2402 12.892C6.85897 13.8175 6.66406 14.8091 6.66662 15.81C6.66662 23.5433 10.5864 25.1576 15.2381 25.7143C14.2531 26.696 14.1857 28.3526 14.2857 29.7143V39.0476" stroke="white" stroke-width="4" stroke-linecap="round" stroke-linejoin="round"/>
</svg>
