<svg width="900" height="900" viewBox="0 0 900 900" fill="none" xmlns="http://www.w3.org/2000/svg">
<rect width="900" height="900" fill="black"/>
<path fill-rule="evenodd" clip-rule="evenodd" d="M486.732 169V226.674C486.732 258.549 512.709 284.347 544.715 284.347L602.625 284.318V399.665H544.715C448.668 399.665 370.875 322.248 370.875 226.674V169H486.732ZM370.875 558.508V502.406C370.098 471.205 344.427 446.189 312.91 446.189L255 446.218L255 330.871H312.91C407.94 330.871 485.102 406.658 486.724 500.835H486.732V501.339C486.744 502.179 486.75 503.02 486.75 503.862V559.964C487.527 591.165 513.198 616.182 544.715 616.182L602.625 616.153V731.5H544.715C449.685 731.5 372.523 655.713 370.901 561.536H370.893V561.032C370.881 560.192 370.875 559.351 370.875 558.508Z" fill="white"/>
</svg>
